<svg width="1200" height="470" viewBox="0 0 1200 470" fill="none" xmlns="http://www.w3.org/2000/svg" role="img" aria-labelledby="title desc">
  <title id="title">Jaquar Price Pulse AWS architecture</title>
  <desc id="desc">EventBridge Scheduler starts Step Functions, which invokes Lambda functions that scrape Jaquar watchlist prices into S3 and RDS PostgreSQL, transform mart tables, and serve results through API Gateway to a dashboard.</desc>
  <defs>
    <marker id="arrow" markerWidth="12" markerHeight="12" refX="10" refY="6" orient="auto" markerUnits="strokeWidth">
      <path d="M2 2 L10 6 L2 10 Z" fill="#697386"/>
    </marker>
    <filter id="shadow" x="-20%" y="-20%" width="140%" height="140%">
      <feDropShadow dx="0" dy="10" stdDeviation="12" flood-color="#1D2433" flood-opacity="0.10"/>
    </filter>
  </defs>
  <rect width="1200" height="470" rx="26" fill="#F6F8FB"/>
  <text x="54" y="64" fill="#1D2433" font-family="Inter,Segoe UI,Arial,sans-serif" font-size="32" font-weight="850">AWS data pipeline</text>
  <text x="54" y="93" fill="#697386" font-family="Inter,Segoe UI,Arial,sans-serif" font-size="16">Scheduled ingestion, SQL transformation, API serving, and dashboard consumption</text>
  <g font-family="Inter,Segoe UI,Arial,sans-serif" font-size="14" font-weight="800">
    <rect x="54" y="145" width="150" height="78" rx="14" fill="#FFFFFF" stroke="#DDE3EE" filter="url(#shadow)"/>
    <text x="82" y="177" fill="#1D2433">EventBridge</text><text x="98" y="198" fill="#697386" font-size="12">daily schedule</text>
    <rect x="250" y="145" width="150" height="78" rx="14" fill="#FFFFFF" stroke="#DDE3EE" filter="url(#shadow)"/>
    <text x="284" y="177" fill="#1D2433">Step Functions</text><text x="294" y="198" fill="#697386" font-size="12">orchestration</text>
    <rect x="446" y="145" width="150" height="78" rx="14" fill="#FFF7ED" stroke="#FDBA74" filter="url(#shadow)"/>
    <text x="484" y="177" fill="#1D2433">Lambda</text><text x="475" y="198" fill="#697386" font-size="12">scrape live prices</text>
    <rect x="446" y="286" width="150" height="78" rx="14" fill="#EFF6FF" stroke="#93C5FD" filter="url(#shadow)"/>
    <text x="500" y="318" fill="#1D2433">S3</text><text x="472" y="339" fill="#697386" font-size="12">watchlist CSV</text>
    <rect x="642" y="145" width="150" height="78" rx="14" fill="#F0FDF4" stroke="#86EFAC" filter="url(#shadow)"/>
    <text x="684" y="177" fill="#1D2433">RDS PostgreSQL</text><text x="684" y="198" fill="#697386" font-size="12">raw snapshots</text>
    <rect x="642" y="286" width="150" height="78" rx="14" fill="#FFF7ED" stroke="#FDBA74" filter="url(#shadow)"/>
    <text x="680" y="318" fill="#1D2433">Lambda</text><text x="664" y="339" fill="#697386" font-size="12">transform prices</text>
    <rect x="838" y="286" width="150" height="78" rx="14" fill="#F8FAFC" stroke="#CBD5E1" filter="url(#shadow)"/>
    <text x="882" y="318" fill="#1D2433">Mart tables</text><text x="868" y="339" fill="#697386" font-size="12">history + alerts</text>
    <rect x="838" y="145" width="150" height="78" rx="14" fill="#FFF7ED" stroke="#FDBA74" filter="url(#shadow)"/>
    <text x="876" y="177" fill="#1D2433">Lambda API</text><text x="870" y="198" fill="#697386" font-size="12">query alerts</text>
    <rect x="1034" y="145" width="112" height="78" rx="14" fill="#FFFFFF" stroke="#DDE3EE" filter="url(#shadow)"/>
    <text x="1062" y="177" fill="#1D2433">HTTP API</text><text x="1060" y="198" fill="#697386" font-size="12">Gateway</text>
    <rect x="1034" y="286" width="112" height="78" rx="14" fill="#E7F5F2" stroke="#8DD6C9" filter="url(#shadow)"/>
    <text x="1060" y="318" fill="#1D2433">Dashboard</text><text x="1066" y="339" fill="#697386" font-size="12">browser UI</text>
  </g>
  <g stroke="#697386" stroke-width="2.5" marker-end="url(#arrow)">
    <path d="M204 184 H246"/>
    <path d="M400 184 H442"/>
    <path d="M521 286 V229"/>
    <path d="M596 184 H638"/>
    <path d="M717 224 V282"/>
    <path d="M792 325 H834"/>
    <path d="M913 286 V229"/>
    <path d="M988 184 H1030"/>
    <path d="M1090 224 V282"/>
  </g>
  <rect x="54" y="398" width="1092" height="34" rx="17" fill="#FFFFFF" stroke="#DDE3EE"/>
  <text x="78" y="420" fill="#697386" font-family="Inter,Segoe UI,Arial,sans-serif" font-size="14">Cost-aware setup: db.t4g.micro RDS, S3 Gateway VPC endpoint, no NAT Gateway, no RDS Proxy.</text>
</svg>