<svg width="1200" height="610" viewBox="0 0 1200 610" fill="none" xmlns="http://www.w3.org/2000/svg" role="img" aria-labelledby="title desc">
  <title id="title">Jaquar Price Pulse dashboard preview</title>
  <desc id="desc">A dashboard preview showing pipeline status, KPIs, series movement bars, highest alerts, and price alert rows.</desc>
  <defs>
    <linearGradient id="hero" x1="0" x2="1" y1="0" y2="1">
      <stop offset="0" stop-color="#F7FBFC"/>
      <stop offset="1" stop-color="#DDF4EF"/>
    </linearGradient>
    <filter id="shadow" x="-20%" y="-20%" width="140%" height="140%">
      <feDropShadow dx="0" dy="18" stdDeviation="18" flood-color="#1D2433" flood-opacity="0.12"/>
    </filter>
  </defs>
  <rect width="1200" height="610" rx="28" fill="#F5F8FC"/>
  <rect x="36" y="34" width="1128" height="542" rx="22" fill="#FFFFFF" filter="url(#shadow)"/>
  <rect x="36" y="34" width="1128" height="128" rx="22" fill="url(#hero)"/>
  <circle cx="76" cy="70" r="7" fill="#EF4444"/>
  <circle cx="100" cy="70" r="7" fill="#F59E0B"/>
  <circle cx="124" cy="70" r="7" fill="#22C55E"/>
  <text x="72" y="116" fill="#1D2433" font-family="Inter,Segoe UI,Arial,sans-serif" font-size="42" font-weight="800">Jaquar Price Pulse</text>
  <text x="74" y="145" fill="#697386" font-family="Inter,Segoe UI,Arial,sans-serif" font-size="17">Price-change alerts from an AWS-backed PostgreSQL mart</text>
  <rect x="894" y="74" width="196" height="34" rx="17" fill="#FFFFFF" stroke="#DDE3EE"/>
  <circle cx="916" cy="91" r="6" fill="#138A36"/>
  <text x="932" y="97" fill="#697386" font-family="Inter,Segoe UI,Arial,sans-serif" font-size="14" font-weight="700">API Gateway live</text>
  <rect x="74" y="196" width="246" height="112" rx="12" fill="#FFFFFF" stroke="#DDE3EE"/>
  <text x="98" y="231" fill="#697386" font-family="Inter,Segoe UI,Arial,sans-serif" font-size="13" font-weight="800">ALERTS RETURNED</text>
  <text x="98" y="278" fill="#1D2433" font-family="Inter,Segoe UI,Arial,sans-serif" font-size="44" font-weight="800">25</text>
  <rect x="344" y="196" width="246" height="112" rx="12" fill="#FFFFFF" stroke="#DDE3EE"/>
  <text x="368" y="231" fill="#697386" font-family="Inter,Segoe UI,Arial,sans-serif" font-size="13" font-weight="800">LARGEST MOVEMENT</text>
  <text x="368" y="278" fill="#B42318" font-family="Inter,Segoe UI,Arial,sans-serif" font-size="44" font-weight="800">5.82%</text>
  <rect x="614" y="196" width="246" height="112" rx="12" fill="#FFFFFF" stroke="#DDE3EE"/>
  <text x="638" y="231" fill="#697386" font-family="Inter,Segoe UI,Arial,sans-serif" font-size="13" font-weight="800">LATEST SNAPSHOT</text>
  <text x="638" y="273" fill="#1D2433" font-family="Inter,Segoe UI,Arial,sans-serif" font-size="31" font-weight="800">2026-06-21</text>
  <rect x="884" y="196" width="246" height="112" rx="12" fill="#FFFFFF" stroke="#DDE3EE"/>
  <text x="908" y="231" fill="#697386" font-family="Inter,Segoe UI,Arial,sans-serif" font-size="13" font-weight="800">PRIORITY 1</text>
  <text x="908" y="278" fill="#1D2433" font-family="Inter,Segoe UI,Arial,sans-serif" font-size="44" font-weight="800">12</text>
  <rect x="74" y="336" width="394" height="194" rx="12" fill="#FFFFFF" stroke="#DDE3EE"/>
  <text x="98" y="373" fill="#1D2433" font-family="Inter,Segoe UI,Arial,sans-serif" font-size="20" font-weight="800">Series Movement</text>
  <text x="98" y="414" fill="#697386" font-family="Inter,Segoe UI,Arial,sans-serif" font-size="14">Sensor Faucets</text>
  <rect x="228" y="403" width="184" height="12" rx="6" fill="#E9EEF5"/>
  <rect x="228" y="403" width="168" height="12" rx="6" fill="#0B6FBC"/>
  <text x="420" y="415" fill="#1D2433" font-family="Inter,Segoe UI,Arial,sans-serif" font-size="14" font-weight="800">11.6%</text>
  <text x="98" y="452" fill="#697386" font-family="Inter,Segoe UI,Arial,sans-serif" font-size="14">Kubix Prime</text>
  <rect x="228" y="441" width="184" height="12" rx="6" fill="#E9EEF5"/>
  <rect x="228" y="441" width="122" height="12" rx="6" fill="#057A6F"/>
  <text x="420" y="453" fill="#1D2433" font-family="Inter,Segoe UI,Arial,sans-serif" font-size="14" font-weight="800">5.8%</text>
  <text x="98" y="490" fill="#697386" font-family="Inter,Segoe UI,Arial,sans-serif" font-size="14">Opal Prime</text>
  <rect x="228" y="479" width="184" height="12" rx="6" fill="#E9EEF5"/>
  <rect x="228" y="479" width="122" height="12" rx="6" fill="#B45309"/>
  <text x="420" y="491" fill="#1D2433" font-family="Inter,Segoe UI,Arial,sans-serif" font-size="14" font-weight="800">5.8%</text>
  <rect x="494" y="336" width="636" height="194" rx="12" fill="#FFFFFF" stroke="#DDE3EE"/>
  <text x="518" y="373" fill="#1D2433" font-family="Inter,Segoe UI,Arial,sans-serif" font-size="20" font-weight="800">Highest Alerts</text>
  <rect x="518" y="395" width="588" height="34" rx="8" fill="#FBFCFE"/>
  <text x="536" y="416" fill="#697386" font-family="Inter,Segoe UI,Arial,sans-serif" font-size="12" font-weight="800">PRODUCT</text>
  <text x="792" y="416" fill="#697386" font-family="Inter,Segoe UI,Arial,sans-serif" font-size="12" font-weight="800">MRP</text>
  <text x="934" y="416" fill="#697386" font-family="Inter,Segoe UI,Arial,sans-serif" font-size="12" font-weight="800">CHANGE</text>
  <text x="536" y="458" fill="#1D2433" font-family="Inter,Segoe UI,Arial,sans-serif" font-size="15" font-weight="800">Laguna Tall Boy Sensor Faucet</text>
  <text x="536" y="478" fill="#697386" font-family="Inter,Segoe UI,Arial,sans-serif" font-size="13">SNR-GMP-91017PK</text>
  <text x="792" y="466" fill="#1D2433" font-family="Inter,Segoe UI,Arial,sans-serif" font-size="15" font-weight="800">INR 31,100</text>
  <text x="934" y="466" fill="#B42318" font-family="Inter,Segoe UI,Arial,sans-serif" font-size="15" font-weight="800">+5.82%</text>
  <line x1="518" y1="493" x2="1106" y2="493" stroke="#DDE3EE"/>
  <text x="536" y="521" fill="#1D2433" font-family="Inter,Segoe UI,Arial,sans-serif" font-size="15" font-weight="800">Floor Mounted Bath Mixer</text>
  <text x="792" y="521" fill="#1D2433" font-family="Inter,Segoe UI,Arial,sans-serif" font-size="15" font-weight="800">INR 73,400</text>
  <text x="934" y="521" fill="#B42318" font-family="Inter,Segoe UI,Arial,sans-serif" font-size="15" font-weight="800">+5.82%</text>
</svg>
